<svg xmlns="http://www.w3.org/2000/svg" viewBox="0 0 117.88 68.06"><defs><style>.cls-1{fill:#fff;}</style></defs><g id="Layer_2" data-name="Layer 2"><g id="Layer_1-2" data-name="Layer 1"><path class="cls-1" d="M16.47,67.76a13.46,13.46,0,0,0-.75-1.71,3.32,3.32,0,0,1-1.33.24A2.66,2.66,0,0,1,13,65.64l-.08-.09h0a4.75,4.75,0,0,1-.81-1.12c-.07-.12-.14-.26-.22-.41l0,0-.36-.7,0-.05h0l-.32-.6a4.63,4.63,0,0,0-4.44-2.68,9.21,9.21,0,0,0-1.67.38,4,4,0,0,0-.08.9,4,4,0,0,1,1.48,0c2.2.3,2.72,2.63,3.67,4.25h0a3.76,3.76,0,0,1-1.47.77,4.94,4.94,0,0,1-1.37.18,4.44,4.44,0,0,1-2-.44,4.13,4.13,0,0,1-1.48-1.25,5.94,5.94,0,0,1-.93-2,9.56,9.56,0,0,1-.31-2.54,8.91,8.91,0,0,1,.3-2.4A5.07,5.07,0,0,1,3.8,56a4.34,4.34,0,0,1,1.47-1.19,4.63,4.63,0,0,1,2-.42,4,4,0,0,1,1.9.44A4.38,4.38,0,0,1,10.66,56a6,6,0,0,1,.93,1.86,7.88,7.88,0,0,1,.33,2.32c0,.18,0,.37,0,.55a8.5,8.5,0,0,1,.71,1.06c.18.3.35.66.53,1s.29.59.42.82a4.23,4.23,0,0,0,.24.4c.06-.16.13-.32.19-.49a10.19,10.19,0,0,0,.51-3.34A9,9,0,0,0,14,57a6.49,6.49,0,0,0-1.47-2.34,6.31,6.31,0,0,0-2.28-1.45A8.32,8.32,0,0,0,7.3,52.7a7.88,7.88,0,0,0-2.91.52,6.66,6.66,0,0,0-2.31,1.49A6.74,6.74,0,0,0,.55,57.06,8.39,8.39,0,0,0,0,60.19q0,3.87,1.87,5.87a7.06,7.06,0,0,0,5.43,2,8.33,8.33,0,0,0,2.56-.38l.41-.14a6.61,6.61,0,0,0,1.21-.63A5.22,5.22,0,0,0,16.47,67.76Z"/><path class="cls-1" d="M34.37,53.11a2.32,2.32,0,0,1,0,.24v.17c0,.2,0,.41,0,.62a2.05,2.05,0,0,1-.09.48c-.25,0-.54.07-.86.1l-.9.07V62a6.94,6.94,0,0,1-.41,2.42,5.4,5.4,0,0,1-1.2,1.9A5.51,5.51,0,0,1,29,67.6a6.73,6.73,0,0,1-2.57.46q-3.21,0-4.64-1.52a6.31,6.31,0,0,1-1.41-4.46V54.87l-.87-.11a5.2,5.2,0,0,1-.84-.17,5,5,0,0,1-.14-.73,7.24,7.24,0,0,1-.05-.75H25.2a2.84,2.84,0,0,1,0,.73,4.81,4.81,0,0,1-.12.73c-.33,0-.71.1-1.12.13l-1.14.09V62a5.06,5.06,0,0,0,.87,3.18,3.46,3.46,0,0,0,2.93,1.12A4.16,4.16,0,0,0,28.31,66a3.58,3.58,0,0,0,1.2-.85,3.37,3.37,0,0,0,.71-1.27,4.89,4.89,0,0,0,.24-1.55V54.79l-.95-.09c-.36,0-.66-.07-.9-.11a4.5,4.5,0,0,1-.07-.77,3.21,3.21,0,0,1,0-.71Z"/><path class="cls-1" d="M59.85,65.88l2.44,0c.87,0,1.69-.08,2.46-.17,0-.29.1-.67.18-1.13a10.74,10.74,0,0,1,.26-1.15A7.92,7.92,0,0,1,66,63.3a2.52,2.52,0,0,1,.78,0v4.21H55.25a6.37,6.37,0,0,1,.14-.68,2.23,2.23,0,0,1,.25-.64,3.74,3.74,0,0,1,.82-.35,8,8,0,0,1,.94-.23V54.79l-1-.09c-.35,0-.66-.07-.94-.11a5.83,5.83,0,0,1-.07-.77,3.21,3.21,0,0,1,0-.71h7.05a4,4,0,0,1,0,.71,4.33,4.33,0,0,1-.08.77l-1.28.11-1.28.09V65.88Z"/><path class="cls-1" d="M76.8,52.69a8.32,8.32,0,0,1,2.94.5A6.22,6.22,0,0,1,82,54.64,6.53,6.53,0,0,1,83.49,57,9.08,9.08,0,0,1,84,60.18a10.21,10.21,0,0,1-.51,3.35A6.83,6.83,0,0,1,82.05,66a6.37,6.37,0,0,1-2.28,1.53,8.19,8.19,0,0,1-3,.52,7.1,7.1,0,0,1-5.43-2,8.33,8.33,0,0,1-1.87-5.88,8.58,8.58,0,0,1,.55-3.12,6.88,6.88,0,0,1,1.53-2.36,6.78,6.78,0,0,1,2.31-1.48A7.88,7.88,0,0,1,76.8,52.69Zm-4.71,7.49a9.17,9.17,0,0,0,.32,2.55,6,6,0,0,0,.92,2,4.08,4.08,0,0,0,1.49,1.25,4.37,4.37,0,0,0,2,.44,4,4,0,0,0,3.47-1.65,9,9,0,0,0,.82-6.86A5.8,5.8,0,0,0,80.16,56a4.38,4.38,0,0,0-1.46-1.22,4,4,0,0,0-1.9-.44,4.63,4.63,0,0,0-2,.42A4.44,4.44,0,0,0,73.3,56a5.07,5.07,0,0,0-.91,1.83A8.83,8.83,0,0,0,72.09,60.18Z"/><path class="cls-1" d="M111.08,60.51c.07-.18.17-.38.28-.6l.33-.64,1.76-3a6.6,6.6,0,0,1,.45-.71,4.14,4.14,0,0,1,.57-.64c-.28,0-.59-.09-.94-.17a3.35,3.35,0,0,1-.82-.25,2.58,2.58,0,0,1-.18-.67,3.84,3.84,0,0,1-.07-.7h5.42a2.94,2.94,0,0,1-.11.75,3.56,3.56,0,0,1-.22.71,4.26,4.26,0,0,1-.59.16,4.89,4.89,0,0,1-.67.11l-4.49,7.33v3.52c.36,0,.79.1,1.28.18a8,8,0,0,1,1.14.26c0,.19.07.41.1.68a2.65,2.65,0,0,1,0,.7H107a6.37,6.37,0,0,1,.14-.68,2.57,2.57,0,0,1,.25-.64,5.37,5.37,0,0,1,.92-.35,8.93,8.93,0,0,1,1-.23V62.25L105.11,55a5.61,5.61,0,0,1-1.52-.6,2.41,2.41,0,0,1-.16-.63,4.6,4.6,0,0,1-.06-.69h6.47a3.68,3.68,0,0,1-.07.73,5.16,5.16,0,0,1-.15.67,4.78,4.78,0,0,1-.92.24l-1.06.15a4.08,4.08,0,0,1,.55.6,7.72,7.72,0,0,1,.47.69l1.68,3.09.3.63c.11.24.19.44.25.6Z"/><polygon class="cls-1" points="46.86 63.08 47.31 64.2 46.87 63.08 46.86 63.08"/><path class="cls-1" d="M46.48,66.19a2.48,2.48,0,0,0-.25.63,3.85,3.85,0,0,0-.13.69h6.27a3.44,3.44,0,0,0-.13-.72c-.08-.25-.16-.48-.25-.69-.18,0-.41-.1-.68-.15s-.5-.08-.7-.09L45.19,52.64l-2.34.3L37.51,65.58a5.33,5.33,0,0,0-.86.28,3.65,3.65,0,0,0-.77.41,1.92,1.92,0,0,0-.19.6c0,.23-.07.44-.09.64h5.93a4.85,4.85,0,0,0-.07-.72c-.05-.25-.1-.47-.15-.63a4.94,4.94,0,0,0-.89-.25c-.36-.07-.68-.13-1-.16a4,4,0,0,0,.41-.69,8.49,8.49,0,0,0,.36-.8l.47-1.19h4.07l.61-1.59H41.33L43.09,57c.06-.13.12-.29.2-.48s.14-.39.2-.6.13-.39.18-.57a3.46,3.46,0,0,0,.11-.44H44a7,7,0,0,0,.23,1c.12.43.22.77.32,1l1.27,3.45,1.06,2.69h0l.44,1.13a5.43,5.43,0,0,0,.38.83,4.48,4.48,0,0,0,.5.72,7.25,7.25,0,0,0-.88.18A3.9,3.9,0,0,0,46.48,66.19Z"/><path class="cls-1" d="M97.75,66.08c-.47.07-.94.12-1.4.15s-.9,0-1.32,0a4.54,4.54,0,0,1-3.55-1.5,6.68,6.68,0,0,1-1.36-4.61,7.69,7.69,0,0,1,.41-2.63,4.58,4.58,0,0,1,2.8-2.91,6.21,6.21,0,0,1,2.17-.36,5.15,5.15,0,0,1,1.33.17,5.62,5.62,0,0,1,1.25.5v1.73h2c0-.17.08-.36.11-.57a8.66,8.66,0,0,0,.1-1.25c0-.15,0-.31,0-.49a2.41,2.41,0,0,0-.07-.5A8,8,0,0,0,98.11,53a10.16,10.16,0,0,0-2.56-.3,8.88,8.88,0,0,0-3.32.59,7.33,7.33,0,0,0-2.56,1.65A7.45,7.45,0,0,0,88,57.46a8.39,8.39,0,0,0-.59,3.22,8.77,8.77,0,0,0,.48,3A6.82,6.82,0,0,0,89.27,66a6.25,6.25,0,0,0,2.14,1.53,6.78,6.78,0,0,0,2.79.55,14,14,0,0,0,1.71-.1c.57-.06,1.11-.14,1.64-.23A14.61,14.61,0,0,0,99,67.41c.43-.12.8-.23,1.11-.34V62.85l-2.34.73v2.5Z"/><path class="cls-1" d="M95.88,60.27l-.57,1.47c1,.13,4.27.51,5.93.07l.31-.14a5.36,5.36,0,0,0,.24-.67,4.51,4.51,0,0,0,.15-.73Z"/><path class="cls-1" d="M77,14.08a18.58,18.58,0,0,0-36.06,0,18.57,18.57,0,0,0,18,29.84A18.57,18.57,0,0,0,77,14.08Zm-.3,4.51a17.58,17.58,0,0,1-2.83,9.59A18.89,18.89,0,0,0,74,25.67,18.6,18.6,0,0,0,61.16,8c.43,0,.86-.06,1.3-.06a17.72,17.72,0,0,1,13.72,6.52A17.62,17.62,0,0,1,76.67,18.59Zm-12.33.86a7.13,7.13,0,0,0-1.17-2.32,5.5,5.5,0,0,0-1.83-1.54A5.06,5.06,0,0,0,59,15a5.75,5.75,0,0,0-2.53.53,5.53,5.53,0,0,0-1.85,1.48,6.7,6.7,0,0,0-1.14,2.3,11.2,11.2,0,0,0-.37,3,12.17,12.17,0,0,0,.39,3.19A7.42,7.42,0,0,0,54.62,28a5.12,5.12,0,0,0,1.86,1.57,5.45,5.45,0,0,0,2.48.55,6.3,6.3,0,0,0,1.73-.23,4.59,4.59,0,0,0,1.83-1c-1.19-2-1.84-5-4.59-5.32a4.94,4.94,0,0,0-1.86,0,5.07,5.07,0,0,1,.11-1.13A11.73,11.73,0,0,1,58.27,22c2.57-.22,4.41,1.35,5.55,3.36.13.22.27.48.41.75a.14.14,0,0,0,0,.06l.45.88,0,.06.28.52a5.73,5.73,0,0,0,1,1.4,1.14,1.14,0,0,0,.11.11,3.34,3.34,0,0,0,1.73.82,4.2,4.2,0,0,0,1.66-.31,16.12,16.12,0,0,1,.94,2.15,6.55,6.55,0,0,1-6.26-1.07,8.56,8.56,0,0,1-1.5.79l-.52.17a10.2,10.2,0,0,1-3.21.48c-3,0-5.23-.83-6.79-2.5s-2.35-4.12-2.35-7.36a10.61,10.61,0,0,1,.69-3.92,8.36,8.36,0,0,1,4.82-4.81A10,10,0,0,1,59,13a10.28,10.28,0,0,1,3.69.62A7.89,7.89,0,0,1,65.5,15.4a8.18,8.18,0,0,1,1.84,2.93,11.29,11.29,0,0,1,.66,4,12.94,12.94,0,0,1-.64,4.19c-.07.21-.16.41-.24.61-.11-.16-.21-.34-.3-.5s-.35-.66-.53-1-.44-.88-.66-1.26A9.93,9.93,0,0,0,64.74,23c0-.23,0-.46,0-.69A9.68,9.68,0,0,0,64.34,19.45ZM58.94.86A17.75,17.75,0,0,1,75.61,12.55,18.63,18.63,0,0,0,58.94,7.42a18.63,18.63,0,0,0-16.67,5.13A17.75,17.75,0,0,1,58.94.86ZM41.7,14.46A17.73,17.73,0,0,1,55.42,7.94c.44,0,.87,0,1.3.06A18.6,18.6,0,0,0,43.87,25.67a17.35,17.35,0,0,0,.18,2.51A17.62,17.62,0,0,1,41.7,14.46ZM55.42,43.4A17.71,17.71,0,0,1,40.53,16.07a19,19,0,0,0-.18,2.52,18.47,18.47,0,0,0,4.08,11.59A18.65,18.65,0,0,0,56.72,43.35C56.29,43.38,55.86,43.4,55.42,43.4ZM45.79,31.7a18.55,18.55,0,0,0,26.31,0A17.79,17.79,0,0,1,58.94,43.05,17.76,17.76,0,0,1,45.79,31.7ZM62.46,43.4c-.44,0-.87,0-1.3,0a18.67,18.67,0,0,0,12.3-13.17,18.52,18.52,0,0,0,4.07-11.59,19,19,0,0,0-.18-2.52A17.71,17.71,0,0,1,62.46,43.4Z"/></g></g></svg>